<?xml version="1.0" standalone="no"?>
<!DOCTYPE svg PUBLIC "-//W3C//DTD SVG 20010904//EN"
 "http://www.w3.org/TR/2001/REC-SVG-20010904/DTD/svg10.dtd">
<svg version="1.0" xmlns="http://www.w3.org/2000/svg"
 width="512.000000pt" height="512.000000pt" viewBox="0 0 512.000000 512.000000"
 preserveAspectRatio="xMidYMid meet">
<metadata>
Created by potrace 1.14, written by Peter Selinger 2001-2017
</metadata>
<g transform="translate(0.000000,512.000000) scale(0.100000,-0.100000)"
fill="#000000" stroke="none">
<path d="M2426 4290 c-58 -5 -91 -12 -97 -21 -7 -11 -9 -11 -9 -1 0 7 -5 10
-11 7 -6 -4 -8 -10 -5 -13 6 -6 114 -14 175 -14 18 1 30 -2 27 -5 -3 -3 2 -12
12 -20 14 -12 15 -15 3 -20 -8 -3 -25 -17 -37 -30 -14 -15 -28 -22 -36 -17 -7
4 -10 4 -6 -1 4 -4 2 -15 -4 -23 -10 -12 -7 -18 15 -36 15 -12 27 -29 27 -39
0 -9 5 -17 10 -17 6 0 15 -12 21 -27 14 -38 47 -110 70 -154 10 -20 19 -53 19
-73 0 -20 6 -52 14 -71 8 -18 11 -35 6 -37 -10 -3 19 -71 32 -76 12 -5 10 -82
-2 -82 -6 0 -10 -33 -10 -80 0 -64 -3 -80 -15 -80 -11 0 -15 -11 -15 -40 0
-23 -8 -55 -17 -73 -11 -20 -16 -49 -14 -77 1 -25 -4 -56 -11 -70 -38 -71 -84
-140 -94 -140 -6 0 -19 -18 -29 -40 -10 -22 -24 -40 -30 -40 -7 0 -15 -9 -18
-20 -3 -11 -11 -20 -18 -20 -10 0 -10 3 -1 12 16 16 15 33 -1 19 -10 -8 -17
-7 -25 1 -7 7 -12 8 -12 2 0 -6 18 -30 40 -54 22 -24 40 -47 40 -51 0 -18 45
-31 88 -25 31 4 59 17 88 41 24 20 81 63 126 97 88 65 192 151 272 227 28 25
47 38 43 29 -11 -31 2 -48 29 -38 15 6 32 6 46 -1 22 -9 22 -9 -2 -5 -16 3
-34 -2 -50 -15 -24 -20 -24 -20 -2 -9 13 6 26 10 28 7 3 -2 -41 -33 -98 -68
-57 -35 -146 -93 -198 -129 -241 -168 -293 -200 -324 -200 -33 1 -81 22 -81
37 0 12 -154 163 -167 163 -7 0 -6 -5 2 -15 6 -8 9 -23 5 -36 -5 -15 -4 -19 5
-14 9 5 10 1 5 -15 -5 -15 -4 -20 4 -16 11 7 12 6 16 -29 1 -12 7 -31 14 -43
12 -22 11 -22 -76 -24 -130 -3 -204 2 -198 13 2 3 -12 5 -31 5 -20 0 -38 4
-42 10 -4 5 -13 9 -19 10 -49 4 -49 4 -33 15 12 8 10 9 -7 4 -25 -7 -68 16
-55 30 4 5 1 5 -6 1 -7 -4 -61 15 -125 45 -151 69 -319 134 -419 161 -93 24
-249 30 -283 10 -17 -9 -8 -11 51 -12 73 0 184 -18 184 -29 0 -4 11 -8 25 -9
37 -3 226 -82 407 -169 l157 -76 6 -41 c11 -67 53 -119 107 -131 41 -10 104
12 132 45 24 29 26 30 122 30 103 0 145 -15 179 -63 29 -41 19 -52 -89 -106
-382 -190 -732 -108 -930 217 -40 66 -86 199 -86 248 0 23 -5 34 -15 34 -9 0
-12 -6 -9 -15 4 -8 1 -15 -6 -15 -7 0 -9 -8 -4 -22 3 -13 3 -20 -1 -16 -4 4
-17 -2 -29 -13 -11 -11 -28 -18 -38 -16 -9 3 -25 -3 -35 -12 -17 -15 -37 -22
-73 -25 -19 -1 -90 125 -90 161 0 9 -6 13 -14 10 -10 -4 -12 0 -9 14 4 15 2
18 -11 13 -14 -5 -14 -3 -2 21 8 14 11 35 9 46 -7 24 -10 21 -16 -11 -3 -14
-8 -32 -11 -40 -3 -8 -8 -26 -11 -40 -3 -14 -12 -54 -20 -90 -42 -188 -40
-463 5 -680 65 -310 217 -600 432 -825 197 -206 377 -329 637 -436 78 -32 116
-52 116 -63 1 -58 177 -99 485 -112 226 -10 542 33 598 81 25 22 25 23 8 41
-18 17 -17 19 20 36 269 124 330 159 479 276 580 457 807 1227 570 1927 -122
359 -391 699 -713 902 -238 150 -499 238 -783 263 -123 11 -149 11 -283 0z
m-29 -16 c-3 -3 -12 -4 -19 -1 -8 3 -5 6 6 6 11 1 17 -2 13 -5z m1203 -1123
c0 -292 -123 -554 -322 -687 -129 -86 -281 -121 -478 -111 -139 7 -234 36
-260 79 -10 18 -17 35 -14 40 3 4 1 8 -4 8 -5 0 -17 19 -28 41 -10 23 -25 49
-33 57 -13 12 -12 14 5 10 22 -5 73 18 160 73 34 22 64 39 66 39 3 0 8 -10 12
-23 3 -12 19 -36 36 -52 24 -23 39 -29 77 -29 87 -2 137 58 138 164 0 36 -4
72 -8 82 -9 18 32 47 263 186 125 75 364 202 381 202 5 0 9 -35 9 -79z m-1041
-1385 c-10 -9 -79 -14 -79 -5 0 5 19 9 42 9 23 0 39 -2 37 -4z m-176 -13 c-13
-2 -33 -2 -45 0 -13 2 -3 4 22 4 25 0 35 -2 23 -4z m340 -59 c12 -12 -42 -46
-63 -39 -21 7 -29 -10 -7 -18 6 -3 -24 -3 -68 -2 -62 2 -69 1 -30 -4 l50 -7
-73 -4 c-41 -3 -76 -2 -78 2 -2 3 -34 6 -72 6 -50 -1 -59 -3 -37 -8 42 -11 0
-11 -50 -1 -39 8 -39 9 -7 10 17 0 32 5 32 10 0 5 -20 6 -44 4 -24 -3 -46 -1
-49 3 -3 5 32 10 76 11 45 2 152 11 237 22 191 23 175 22 183 15z m686 -511
c-8 -10 -20 -22 -26 -26 -7 -4 -13 -15 -13 -22 0 -8 -4 -15 -9 -15 -9 0 -99
-57 -111 -69 -3 -4 -21 -14 -40 -25 -211 -111 -263 -136 -315 -147 -33 -7 -64
-16 -70 -20 -5 -4 -68 -15 -139 -25 -113 -16 -145 -16 -262 -6 -73 7 -140 15
-149 18 -33 13 -12 25 43 22 67 -2 272 25 381 51 248 60 404 121 587 229 51
30 99 50 123 51 11 1 11 -2 0 -16z"/>
<path d="M2383 1643 c9 -2 25 -2 35 0 9 3 1 5 -18 5 -19 0 -27 -2 -17 -5z"/>
<path d="M2243 4263 c9 -2 23 -2 30 0 6 3 -1 5 -18 5 -16 0 -22 -2 -12 -5z"/>
<path d="M2187 2760 c-3 -11 -1 -20 4 -20 5 0 9 9 9 20 0 11 -2 20 -4 20 -2 0
-6 -9 -9 -20z"/>
<path d="M2130 2756 c0 -2 7 -6 15 -10 8 -3 15 -1 15 4 0 6 -7 10 -15 10 -8 0
-15 -2 -15 -4z"/>
</g>
</svg>
